<svg width="158" height="158" viewBox="0 0 158 158" fill="none" xmlns="http://www.w3.org/2000/svg">
<rect width="158" height="158" rx="27" fill="#2B2A2A"/>
<path d="M39.3945 137.547C39.3945 137.852 39.332 138.133 39.207 138.391C39.082 138.641 38.9023 138.855 38.668 139.035C38.4336 139.215 38.1445 139.355 37.8008 139.457C37.4648 139.559 37.0781 139.609 36.6406 139.609C36.1484 139.609 35.6953 139.555 35.2812 139.445C34.875 139.336 34.5273 139.164 34.2383 138.93C33.9414 138.695 33.7109 138.395 33.5469 138.027C33.3828 137.66 33.293 137.219 33.2773 136.703H30.043C30.043 137.586 30.2109 138.355 30.5469 139.012C30.8906 139.668 31.3555 140.238 31.9414 140.723C32.5586 141.215 33.2812 141.59 34.1094 141.848C34.9453 142.098 35.7891 142.223 36.6406 142.223C37.5078 142.223 38.3086 142.121 39.043 141.918C39.7773 141.707 40.4102 141.398 40.9414 140.992C41.4727 140.594 41.8867 140.105 42.1836 139.527C42.4883 138.941 42.6406 138.273 42.6406 137.523C42.6406 136.656 42.4414 135.891 42.043 135.227C41.6445 134.562 41.1094 133.98 40.4375 133.48C39.9922 133.176 39.5039 132.906 38.9727 132.672C38.4414 132.438 37.8828 132.238 37.2969 132.074C36.75 131.926 36.2578 131.766 35.8203 131.594C35.3906 131.422 35.0234 131.23 34.7188 131.02C34.4141 130.816 34.1797 130.586 34.0156 130.328C33.8594 130.07 33.7812 129.781 33.7812 129.461C33.7812 129.156 33.8398 128.875 33.957 128.617C34.082 128.352 34.2617 128.121 34.4961 127.926C34.7305 127.738 35.0156 127.594 35.3516 127.492C35.6953 127.383 36.0859 127.328 36.5234 127.328C37 127.328 37.4141 127.395 37.7656 127.527C38.125 127.652 38.4258 127.828 38.668 128.055C38.9023 128.289 39.0781 128.566 39.1953 128.887C39.3203 129.207 39.3906 129.559 39.4062 129.941H42.6172C42.6172 129.176 42.4688 128.473 42.1719 127.832C41.875 127.191 41.4609 126.637 40.9297 126.168C40.3984 125.707 39.7617 125.348 39.0195 125.09C38.2852 124.832 37.4727 124.703 36.582 124.703C35.7227 124.703 34.9258 124.816 34.1914 125.043C33.457 125.262 32.8203 125.578 32.2812 125.992C31.7422 126.406 31.3203 126.906 31.0156 127.492C30.7109 128.078 30.5586 128.73 30.5586 129.449C30.5586 130.074 30.6719 130.652 30.8984 131.184C31.1328 131.715 31.4766 132.199 31.9297 132.637C32.3828 133.074 32.9648 133.477 33.6758 133.844C34.3945 134.211 35.2266 134.523 36.1719 134.781C36.7812 134.945 37.2891 135.125 37.6953 135.32C38.1094 135.508 38.4453 135.715 38.7031 135.941C38.9531 136.176 39.1289 136.426 39.2305 136.691C39.3398 136.957 39.3945 137.242 39.3945 137.547ZM45.1133 146.875H48.3711V140.898C48.5195 141.062 48.6758 141.211 48.8398 141.344C49.0039 141.477 49.1758 141.598 49.3555 141.707C49.6602 141.879 49.9883 142.008 50.3398 142.094C50.6992 142.188 51.0898 142.234 51.5117 142.234C52.3086 142.234 53.0156 142.07 53.6328 141.742C54.25 141.414 54.7695 140.961 55.1914 140.383C55.6055 139.812 55.918 139.133 56.1289 138.344C56.3477 137.555 56.457 136.699 56.457 135.777V135.531C56.457 134.57 56.3477 133.695 56.1289 132.906C55.918 132.109 55.6016 131.426 55.1797 130.855C54.7578 130.293 54.2383 129.859 53.6211 129.555C53.0039 129.242 52.293 129.086 51.4883 129.086C51.0977 129.086 50.7305 129.129 50.3867 129.215C50.0508 129.293 49.7422 129.406 49.4609 129.555C49.2266 129.68 49.0078 129.828 48.8047 130C48.6016 130.164 48.4141 130.352 48.2422 130.562L48.125 129.32H45.1133V146.875ZM53.1992 135.531V135.777C53.1992 136.301 53.1523 136.797 53.0586 137.266C52.9648 137.727 52.8164 138.133 52.6133 138.484C52.4102 138.836 52.1445 139.113 51.8164 139.316C51.4961 139.52 51.1055 139.621 50.6445 139.621C50.3555 139.621 50.0938 139.594 49.8594 139.539C49.625 139.477 49.418 139.391 49.2383 139.281C49.0508 139.164 48.8828 139.023 48.7344 138.859C48.5938 138.695 48.4727 138.512 48.3711 138.309V133.012C48.4805 132.793 48.6094 132.602 48.7578 132.438C48.9141 132.273 49.0938 132.137 49.2969 132.027C49.4766 131.934 49.6758 131.863 49.8945 131.816C50.1133 131.762 50.3555 131.734 50.6211 131.734C51.082 131.734 51.4727 131.832 51.793 132.027C52.1211 132.223 52.3906 132.488 52.6016 132.824C52.8047 133.168 52.9531 133.574 53.0469 134.043C53.1484 134.504 53.1992 135 53.1992 135.531ZM67.4023 142H70.707V141.801C70.543 141.48 70.418 141.098 70.332 140.652C70.2461 140.207 70.2031 139.645 70.2031 138.965V133.527C70.2031 132.793 70.0664 132.148 69.793 131.594C69.5195 131.031 69.1406 130.566 68.6562 130.199C68.1719 129.832 67.5977 129.555 66.9336 129.367C66.2773 129.18 65.5664 129.086 64.8008 129.086C63.9492 129.086 63.1914 129.195 62.5273 129.414C61.8711 129.625 61.3164 129.914 60.8633 130.281C60.4023 130.648 60.0508 131.074 59.8086 131.559C59.5742 132.043 59.457 132.555 59.457 133.094H62.7148C62.7148 132.867 62.7461 132.66 62.8086 132.473C62.8789 132.285 62.9844 132.125 63.125 131.992C63.2812 131.844 63.4844 131.73 63.7344 131.652C63.9844 131.566 64.2812 131.523 64.625 131.523C65.0156 131.523 65.3555 131.574 65.6445 131.676C65.9414 131.77 66.1875 131.906 66.3828 132.086C66.5703 132.258 66.7109 132.465 66.8047 132.707C66.8984 132.941 66.9453 133.207 66.9453 133.504V134.254H65.1289C64.1914 134.254 63.3594 134.34 62.6328 134.512C61.9141 134.676 61.3086 134.918 60.8164 135.238C60.2695 135.59 59.8594 136.039 59.5859 136.586C59.3125 137.125 59.1758 137.746 59.1758 138.449C59.1758 138.996 59.2852 139.504 59.5039 139.973C59.7227 140.434 60.0273 140.832 60.418 141.168C60.8086 141.504 61.2734 141.766 61.8125 141.953C62.3594 142.141 62.957 142.234 63.6055 142.234C64.0039 142.234 64.375 142.195 64.7188 142.117C65.0625 142.047 65.3789 141.945 65.668 141.812C65.9492 141.688 66.207 141.539 66.4414 141.367C66.6758 141.195 66.8828 141.012 67.0625 140.816C67.1016 141.043 67.1484 141.258 67.2031 141.461C67.2578 141.664 67.3242 141.844 67.4023 142ZM64.2969 139.715C63.9922 139.715 63.7227 139.68 63.4883 139.609C63.2617 139.531 63.0703 139.43 62.9141 139.305C62.7578 139.172 62.6367 139.012 62.5508 138.824C62.4727 138.629 62.4336 138.418 62.4336 138.191C62.4336 137.902 62.4883 137.637 62.5977 137.395C62.707 137.145 62.875 136.93 63.1016 136.75C63.3281 136.578 63.6211 136.445 63.9805 136.352C64.3398 136.25 64.7734 136.199 65.2812 136.199H66.9453V138.379C66.8516 138.543 66.7227 138.707 66.5586 138.871C66.3945 139.027 66.1992 139.168 65.9727 139.293C65.7461 139.418 65.4922 139.52 65.2109 139.598C64.9297 139.676 64.625 139.715 64.2969 139.715ZM79.5078 139.633C78.9844 139.633 78.5508 139.527 78.207 139.316C77.8711 139.105 77.6055 138.824 77.4102 138.473C77.207 138.129 77.0664 137.73 76.9883 137.277C76.9102 136.816 76.8711 136.34 76.8711 135.848V135.496C76.8711 135.012 76.9102 134.543 76.9883 134.09C77.0742 133.637 77.2188 133.234 77.4219 132.883C77.6172 132.531 77.8828 132.25 78.2188 132.039C78.5547 131.828 78.9805 131.723 79.4961 131.723C79.8477 131.723 80.1719 131.785 80.4688 131.91C80.7656 132.027 81.0195 132.188 81.2305 132.391C81.4414 132.594 81.6016 132.836 81.7109 133.117C81.8203 133.398 81.8672 133.695 81.8516 134.008H84.9219C84.9375 133.258 84.8125 132.582 84.5469 131.98C84.2812 131.371 83.9102 130.852 83.4336 130.422C82.9492 130 82.375 129.672 81.7109 129.438C81.0469 129.203 80.3242 129.086 79.543 129.086C78.5664 129.086 77.707 129.254 76.9648 129.59C76.2305 129.926 75.6133 130.383 75.1133 130.961C74.6133 131.539 74.2383 132.219 73.9883 133C73.7383 133.773 73.6133 134.605 73.6133 135.496V135.848C73.6133 136.738 73.7383 137.574 73.9883 138.355C74.2461 139.129 74.625 139.805 75.125 140.383C75.6172 140.961 76.2344 141.418 76.9766 141.754C77.7188 142.082 78.582 142.246 79.5664 142.246C80.293 142.246 80.9805 142.133 81.6289 141.906C82.2852 141.672 82.8594 141.352 83.3516 140.945C83.8438 140.539 84.2305 140.055 84.5117 139.492C84.8008 138.93 84.9375 138.32 84.9219 137.664H81.8516C81.8672 137.961 81.8125 138.23 81.6875 138.473C81.5703 138.715 81.4023 138.922 81.1836 139.094C80.9648 139.266 80.7109 139.398 80.4219 139.492C80.1328 139.586 79.8281 139.633 79.5078 139.633ZM89.1758 129.32V131.98H92.7852V139.352H89.1758V142H99.5117V139.352H96.0781V129.32H89.1758ZM92.5508 126.074C92.5508 126.324 92.5938 126.559 92.6797 126.777C92.7734 126.988 92.9023 127.168 93.0664 127.316C93.2305 127.473 93.4258 127.594 93.6523 127.68C93.8867 127.766 94.1445 127.809 94.4258 127.809C95.0039 127.809 95.4609 127.648 95.7969 127.328C96.1406 127 96.3125 126.582 96.3125 126.074C96.3125 125.566 96.1406 125.152 95.7969 124.832C95.4609 124.504 95.0039 124.34 94.4258 124.34C94.1445 124.34 93.8867 124.383 93.6523 124.469C93.4258 124.555 93.2305 124.672 93.0664 124.82C92.9023 124.977 92.7734 125.164 92.6797 125.383C92.5938 125.594 92.5508 125.824 92.5508 126.074ZM102.723 142H105.992V132.988C106.102 132.816 106.223 132.66 106.355 132.52C106.488 132.379 106.637 132.258 106.801 132.156C107.004 132.016 107.234 131.91 107.492 131.84C107.758 131.77 108.047 131.734 108.359 131.734C108.734 131.734 109.07 131.773 109.367 131.852C109.664 131.922 109.918 132.051 110.129 132.238C110.34 132.426 110.5 132.684 110.609 133.012C110.727 133.332 110.785 133.742 110.785 134.242V142H114.043V134.195C114.043 133.273 113.934 132.492 113.715 131.852C113.504 131.203 113.207 130.672 112.824 130.258C112.434 129.852 111.973 129.555 111.441 129.367C110.91 129.18 110.324 129.086 109.684 129.086C109.184 129.086 108.711 129.156 108.266 129.297C107.82 129.438 107.41 129.641 107.035 129.906C106.816 130.062 106.609 130.238 106.414 130.434C106.219 130.629 106.039 130.844 105.875 131.078L105.676 129.32H102.723V142ZM116.809 135.566V135.812C116.809 136.734 116.926 137.59 117.16 138.379C117.402 139.16 117.746 139.836 118.191 140.406C118.637 140.977 119.172 141.426 119.797 141.754C120.43 142.074 121.141 142.234 121.93 142.234C122.328 142.234 122.699 142.191 123.043 142.105C123.395 142.02 123.715 141.898 124.004 141.742C124.199 141.633 124.383 141.508 124.555 141.367C124.727 141.227 124.891 141.07 125.047 140.898V141.625C125.047 142.055 124.984 142.441 124.859 142.785C124.742 143.129 124.57 143.418 124.344 143.652C124.094 143.91 123.781 144.105 123.406 144.238C123.039 144.371 122.617 144.438 122.141 144.438C121.844 144.438 121.555 144.406 121.273 144.344C121 144.289 120.734 144.203 120.477 144.086C120.211 143.969 119.957 143.816 119.715 143.629C119.473 143.449 119.246 143.238 119.035 142.996L117.57 144.977C117.844 145.328 118.172 145.629 118.555 145.879C118.938 146.137 119.344 146.348 119.773 146.512C120.203 146.676 120.637 146.797 121.074 146.875C121.512 146.953 121.922 146.992 122.305 146.992C123.195 146.992 124.008 146.871 124.742 146.629C125.484 146.395 126.121 146.047 126.652 145.586C127.176 145.125 127.582 144.559 127.871 143.887C128.168 143.215 128.316 142.449 128.316 141.59V129.32H125.352L125.223 130.527C125.066 130.332 124.895 130.156 124.707 130C124.52 129.836 124.316 129.695 124.098 129.578C123.809 129.414 123.484 129.293 123.125 129.215C122.773 129.129 122.383 129.086 121.953 129.086C121.156 129.086 120.441 129.242 119.809 129.555C119.176 129.867 118.637 130.309 118.191 130.879C117.746 131.449 117.402 132.133 117.16 132.93C116.926 133.727 116.809 134.605 116.809 135.566ZM120.078 135.812V135.566C120.078 135.035 120.133 134.539 120.242 134.078C120.352 133.609 120.52 133.199 120.746 132.848C120.965 132.504 121.242 132.234 121.578 132.039C121.914 131.836 122.312 131.734 122.773 131.734C123.023 131.734 123.254 131.758 123.465 131.805C123.684 131.852 123.883 131.918 124.062 132.004C124.273 132.105 124.461 132.238 124.625 132.402C124.789 132.566 124.93 132.758 125.047 132.977V138.344C124.938 138.539 124.809 138.715 124.66 138.871C124.512 139.027 124.34 139.16 124.145 139.27C123.957 139.371 123.746 139.449 123.512 139.504C123.285 139.559 123.031 139.586 122.75 139.586C122.289 139.586 121.891 139.488 121.555 139.293C121.219 139.098 120.941 138.828 120.723 138.484C120.504 138.148 120.34 137.754 120.23 137.301C120.129 136.84 120.078 136.344 120.078 135.812Z" fill="#E6E5E5"/>
<path d="M27 23V117" stroke="#E2E2E2"/>
<path d="M62.0311 23V117" stroke="#E2E2E2"/>
<path d="M97.0621 23V117" stroke="#E2E2E2"/>
<path d="M132.093 23V117" stroke="#E2E2E2"/>
<g filter="url(#filter0_dii_3_14)">
<rect x="27" y="30" width="105" height="14" fill="#92929E"/>
</g>
<g filter="url(#filter1_dii_3_14)">
<rect x="27" y="51" width="88" height="14" fill="#92929E"/>
</g>
<g filter="url(#filter2_dii_3_14)">
<rect x="27" y="72" width="70" height="14" fill="#92929E"/>
</g>
<g filter="url(#filter3_dii_3_14)">
<rect x="27" y="93" width="58" height="14" fill="#92929E"/>
</g>
<defs>
<filter id="filter0_dii_3_14" x="23" y="26" width="113" height="24" filterUnits="userSpaceOnUse" color-interpolation-filters="sRGB">
<feFlood flood-opacity="0" result="BackgroundImageFix"/>
<feColorMatrix in="SourceAlpha" type="matrix" values="0 0 0 0 0 0 0 0 0 0 0 0 0 0 0 0 0 0 127 0" result="hardAlpha"/>
<feOffset dy="2"/>
<feGaussianBlur stdDeviation="2"/>
<feComposite in2="hardAlpha" operator="out"/>
<feColorMatrix type="matrix" values="0 0 0 0 0 0 0 0 0 0 0 0 0 0 0 0 0 0 0.25 0"/>
<feBlend mode="normal" in2="BackgroundImageFix" result="effect1_dropShadow_3_14"/>
<feBlend mode="normal" in="SourceGraphic" in2="effect1_dropShadow_3_14" result="shape"/>
<feColorMatrix in="SourceAlpha" type="matrix" values="0 0 0 0 0 0 0 0 0 0 0 0 0 0 0 0 0 0 127 0" result="hardAlpha"/>
<feOffset dx="2" dy="2"/>
<feGaussianBlur stdDeviation="1"/>
<feComposite in2="hardAlpha" operator="arithmetic" k2="-1" k3="1"/>
<feColorMatrix type="matrix" values="0 0 0 0 0.895833 0 0 0 0 0.880903 0 0 0 0 0.880903 0 0 0 0.25 0"/>
<feBlend mode="normal" in2="shape" result="effect2_innerShadow_3_14"/>
<feColorMatrix in="SourceAlpha" type="matrix" values="0 0 0 0 0 0 0 0 0 0 0 0 0 0 0 0 0 0 127 0" result="hardAlpha"/>
<feOffset dy="-4"/>
<feGaussianBlur stdDeviation="2"/>
<feComposite in2="hardAlpha" operator="arithmetic" k2="-1" k3="1"/>
<feColorMatrix type="matrix" values="0 0 0 0 0.225 0 0 0 0 0.225 0 0 0 0 0.225 0 0 0 0.47 0"/>
<feBlend mode="normal" in2="effect2_innerShadow_3_14" result="effect3_innerShadow_3_14"/>
</filter>
<filter id="filter1_dii_3_14" x="23" y="47" width="96" height="24" filterUnits="userSpaceOnUse" color-interpolation-filters="sRGB">
<feFlood flood-opacity="0" result="BackgroundImageFix"/>
<feColorMatrix in="SourceAlpha" type="matrix" values="0 0 0 0 0 0 0 0 0 0 0 0 0 0 0 0 0 0 127 0" result="hardAlpha"/>
<feOffset dy="2"/>
<feGaussianBlur stdDeviation="2"/>
<feComposite in2="hardAlpha" operator="out"/>
<feColorMatrix type="matrix" values="0 0 0 0 0 0 0 0 0 0 0 0 0 0 0 0 0 0 0.25 0"/>
<feBlend mode="normal" in2="BackgroundImageFix" result="effect1_dropShadow_3_14"/>
<feBlend mode="normal" in="SourceGraphic" in2="effect1_dropShadow_3_14" result="shape"/>
<feColorMatrix in="SourceAlpha" type="matrix" values="0 0 0 0 0 0 0 0 0 0 0 0 0 0 0 0 0 0 127 0" result="hardAlpha"/>
<feOffset dx="2" dy="2"/>
<feGaussianBlur stdDeviation="1"/>
<feComposite in2="hardAlpha" operator="arithmetic" k2="-1" k3="1"/>
<feColorMatrix type="matrix" values="0 0 0 0 0.895833 0 0 0 0 0.880903 0 0 0 0 0.880903 0 0 0 0.25 0"/>
<feBlend mode="normal" in2="shape" result="effect2_innerShadow_3_14"/>
<feColorMatrix in="SourceAlpha" type="matrix" values="0 0 0 0 0 0 0 0 0 0 0 0 0 0 0 0 0 0 127 0" result="hardAlpha"/>
<feOffset dy="-4"/>
<feGaussianBlur stdDeviation="2"/>
<feComposite in2="hardAlpha" operator="arithmetic" k2="-1" k3="1"/>
<feColorMatrix type="matrix" values="0 0 0 0 0.225 0 0 0 0 0.225 0 0 0 0 0.225 0 0 0 0.47 0"/>
<feBlend mode="normal" in2="effect2_innerShadow_3_14" result="effect3_innerShadow_3_14"/>
</filter>
<filter id="filter2_dii_3_14" x="23" y="68" width="78" height="24" filterUnits="userSpaceOnUse" color-interpolation-filters="sRGB">
<feFlood flood-opacity="0" result="BackgroundImageFix"/>
<feColorMatrix in="SourceAlpha" type="matrix" values="0 0 0 0 0 0 0 0 0 0 0 0 0 0 0 0 0 0 127 0" result="hardAlpha"/>
<feOffset dy="2"/>
<feGaussianBlur stdDeviation="2"/>
<feComposite in2="hardAlpha" operator="out"/>
<feColorMatrix type="matrix" values="0 0 0 0 0 0 0 0 0 0 0 0 0 0 0 0 0 0 0.25 0"/>
<feBlend mode="normal" in2="BackgroundImageFix" result="effect1_dropShadow_3_14"/>
<feBlend mode="normal" in="SourceGraphic" in2="effect1_dropShadow_3_14" result="shape"/>
<feColorMatrix in="SourceAlpha" type="matrix" values="0 0 0 0 0 0 0 0 0 0 0 0 0 0 0 0 0 0 127 0" result="hardAlpha"/>
<feOffset dx="2" dy="2"/>
<feGaussianBlur stdDeviation="1"/>
<feComposite in2="hardAlpha" operator="arithmetic" k2="-1" k3="1"/>
<feColorMatrix type="matrix" values="0 0 0 0 0.895833 0 0 0 0 0.880903 0 0 0 0 0.880903 0 0 0 0.25 0"/>
<feBlend mode="normal" in2="shape" result="effect2_innerShadow_3_14"/>
<feColorMatrix in="SourceAlpha" type="matrix" values="0 0 0 0 0 0 0 0 0 0 0 0 0 0 0 0 0 0 127 0" result="hardAlpha"/>
<feOffset dy="-4"/>
<feGaussianBlur stdDeviation="2"/>
<feComposite in2="hardAlpha" operator="arithmetic" k2="-1" k3="1"/>
<feColorMatrix type="matrix" values="0 0 0 0 0.225 0 0 0 0 0.225 0 0 0 0 0.225 0 0 0 0.47 0"/>
<feBlend mode="normal" in2="effect2_innerShadow_3_14" result="effect3_innerShadow_3_14"/>
</filter>
<filter id="filter3_dii_3_14" x="23" y="89" width="66" height="24" filterUnits="userSpaceOnUse" color-interpolation-filters="sRGB">
<feFlood flood-opacity="0" result="BackgroundImageFix"/>
<feColorMatrix in="SourceAlpha" type="matrix" values="0 0 0 0 0 0 0 0 0 0 0 0 0 0 0 0 0 0 127 0" result="hardAlpha"/>
<feOffset dy="2"/>
<feGaussianBlur stdDeviation="2"/>
<feComposite in2="hardAlpha" operator="out"/>
<feColorMatrix type="matrix" values="0 0 0 0 0 0 0 0 0 0 0 0 0 0 0 0 0 0 0.25 0"/>
<feBlend mode="normal" in2="BackgroundImageFix" result="effect1_dropShadow_3_14"/>
<feBlend mode="normal" in="SourceGraphic" in2="effect1_dropShadow_3_14" result="shape"/>
<feColorMatrix in="SourceAlpha" type="matrix" values="0 0 0 0 0 0 0 0 0 0 0 0 0 0 0 0 0 0 127 0" result="hardAlpha"/>
<feOffset dx="2" dy="2"/>
<feGaussianBlur stdDeviation="1"/>
<feComposite in2="hardAlpha" operator="arithmetic" k2="-1" k3="1"/>
<feColorMatrix type="matrix" values="0 0 0 0 0.895833 0 0 0 0 0.880903 0 0 0 0 0.880903 0 0 0 0.25 0"/>
<feBlend mode="normal" in2="shape" result="effect2_innerShadow_3_14"/>
<feColorMatrix in="SourceAlpha" type="matrix" values="0 0 0 0 0 0 0 0 0 0 0 0 0 0 0 0 0 0 127 0" result="hardAlpha"/>
<feOffset dy="-4"/>
<feGaussianBlur stdDeviation="2"/>
<feComposite in2="hardAlpha" operator="arithmetic" k2="-1" k3="1"/>
<feColorMatrix type="matrix" values="0 0 0 0 0.225 0 0 0 0 0.225 0 0 0 0 0.225 0 0 0 0.47 0"/>
<feBlend mode="normal" in2="effect2_innerShadow_3_14" result="effect3_innerShadow_3_14"/>
</filter>
</defs>
</svg>
